<svg fill="none" height="24" viewBox="0 0 24 24" width="24" xmlns="http://www.w3.org/2000/svg"><g clip-rule="evenodd" fill-rule="evenodd"><g fill="#ffc44d"><path d="m12 1.25c.4142 0 .75.33579.75.75v3c0 .41421-.3358.75-.75.75s-.75-.33579-.75-.75v-3c0-.41421.3358-.75.75-.75z"/><path d="m12.2692 8.29999c.3866.1487.5795.58264.4308.96925l-4.99999 12.99996c-.14869.3866-.58264.5795-.96924.4308s-.57947-.5826-.43078-.9692l5.00001-13.00003c.1487-.3866.5826-.57947.9692-.43078z"/><path d="m11.7308 8.29999c-.3866.1487-.5795.58264-.4308.96925l5 12.99996c.1487.3866.5826.5795.9692.4308s.5795-.5826.4308-.9692l-5-13.00003c-.1487-.3866-.5826-.57947-.9692-.43078z"/></g><path d="m12 4.25c-1.5188 0-2.75 1.23122-2.75 2.75s1.2312 2.75 2.75 2.75 2.75-1.23122 2.75-2.75-1.2312-2.75-2.75-2.75z" fill="#ff884d"/><path d="m4.69477 13.3508c.35855-.2074.81734-.0849 1.02475.2737 1.25469 2.1689 3.59796 3.6255 6.28058 3.6255 2.6825 0 5.0258-1.4566 6.2805-3.6255.2074-.3586.6662-.4811 1.0247-.2737.3586.2074.4811.6662.2737 1.0247-1.5118 2.6135-4.3393 4.3745-7.5789 4.3745-3.23972 0-6.06721-1.761-7.57899-4.3745-.20741-.3585-.08489-.8173.27366-1.0247z" fill="#ff884d"/></g></svg>